G04*
G04 #@! TF.GenerationSoftware,Altium Limited,Altium Designer,22.10.1 (41)*
G04*
G04 Layer_Physical_Order=3*
G04 Layer_Color=128*
%FSLAX24Y24*%
%MOIN*%
G70*
G04*
G04 #@! TF.SameCoordinates,F5F2B8B7-F30C-4C2E-8927-2DA7AF6E4F83*
G04*
G04*
G04 #@! TF.FilePolarity,Negative*
G04*
G01*
G75*
%ADD83C,0.0160*%
%ADD85C,0.0200*%
%ADD108C,0.0802*%
%ADD109C,0.0833*%
%ADD111C,0.0715*%
G04:AMPARAMS|DCode=112|XSize=91.496mil|YSize=91.496mil|CornerRadius=0mil|HoleSize=0mil|Usage=FLASHONLY|Rotation=0.000|XOffset=0mil|YOffset=0mil|HoleType=Round|Shape=Relief|Width=20mil|Gap=10mil|Entries=4|*
%AMTHD112*
7,0,0,0.0915,0.0715,0.0200,45*
%
%ADD112THD112*%
%ADD113C,0.0695*%
%ADD114C,0.0676*%
%ADD116C,0.1030*%
%ADD118C,0.0750*%
%ADD120C,0.0950*%
%ADD121C,0.0800*%
G04:AMPARAMS|DCode=122|XSize=72mil|YSize=72mil|CornerRadius=0mil|HoleSize=0mil|Usage=FLASHONLY|Rotation=0.000|XOffset=0mil|YOffset=0mil|HoleType=Round|Shape=Relief|Width=20mil|Gap=10mil|Entries=4|*
%AMTHD122*
7,0,0,0.0720,0.0520,0.0200,45*
%
%ADD122THD122*%
%ADD123C,0.0520*%
%ADD124C,0.0680*%
%ADD125C,0.1920*%
G04:AMPARAMS|DCode=126|XSize=100mil|YSize=100mil|CornerRadius=0mil|HoleSize=0mil|Usage=FLASHONLY|Rotation=0.000|XOffset=0mil|YOffset=0mil|HoleType=Round|Shape=Relief|Width=20mil|Gap=10mil|Entries=4|*
%AMTHD126*
7,0,0,0.1000,0.0800,0.0200,45*
%
%ADD126THD126*%
G04:AMPARAMS|DCode=127|XSize=88mil|YSize=88mil|CornerRadius=0mil|HoleSize=0mil|Usage=FLASHONLY|Rotation=0.000|XOffset=0mil|YOffset=0mil|HoleType=Round|Shape=Relief|Width=20mil|Gap=10mil|Entries=4|*
%AMTHD127*
7,0,0,0.0880,0.0680,0.0200,45*
%
%ADD127THD127*%
D83*
X10100Y23250D02*
X26800D01*
X10100Y5750D02*
Y23250D01*
X100Y5150D02*
X9500D01*
X10100Y5750D01*
X14250Y41797D02*
X18003D01*
X18850Y40950D01*
X28500Y6200D02*
Y12750D01*
X21850D02*
X28500D01*
X21850D02*
Y12800D01*
X28500Y6150D02*
X35902D01*
X23450Y27100D02*
X26400D01*
X27313Y28012D01*
X27300Y28025D02*
X27313Y28012D01*
X27300Y28025D02*
Y28300D01*
Y29250D01*
X21850Y12750D02*
Y19350D01*
X23700Y21200D01*
X19350Y27100D02*
X20900D01*
X23450D01*
X15179Y31760D02*
X18800D01*
X15250Y34000D02*
X18800D01*
X15150Y31763D02*
Y33900D01*
X15250Y34000D01*
X15150Y31763D02*
X15157Y31757D01*
X18800Y27650D02*
Y31760D01*
X18850Y34000D02*
Y40600D01*
Y40500D02*
Y40950D01*
X35850Y21150D02*
Y39750D01*
Y21150D02*
X35902Y6150D01*
X27300Y39750D02*
X35850D01*
X27300Y29250D02*
Y39750D01*
X26900Y21400D02*
Y23050D01*
X26750Y21200D02*
X26900Y21350D01*
X25000Y21200D02*
X26750D01*
X18800Y27650D02*
X19350Y27100D01*
X26800Y23250D02*
X26900Y23150D01*
X23700Y21200D02*
X24950D01*
X14250Y37350D02*
Y41797D01*
X13650Y36750D02*
X14250Y37350D01*
X9200Y36750D02*
X13650D01*
X6250Y39700D02*
X9200Y36750D01*
X6250Y39700D02*
Y41652D01*
Y43600D01*
Y45700D01*
X12950Y44450D02*
X20758D01*
X23850Y43000D02*
X26650D01*
X23850D02*
Y47450D01*
X21200D02*
X23850D01*
X20758Y47008D02*
X21200Y47450D01*
X20758Y44450D02*
Y47008D01*
X31500Y49900D02*
X33900Y47500D01*
Y43000D02*
Y47500D01*
X26660Y43000D02*
X33900D01*
X11700Y45700D02*
X12950Y44450D01*
X3800Y45700D02*
X11700D01*
X3750Y45750D02*
X3800Y45700D01*
X3750Y45750D02*
Y49950D01*
D85*
X-20Y-40D02*
Y49960D01*
Y-40D02*
X39750D01*
X-20Y49960D02*
X39750D01*
Y-40D02*
Y49960D01*
D108*
X21500Y2750D02*
D03*
X20500D02*
D03*
D109*
X5372Y1900D02*
D03*
X6750D02*
D03*
X8128D02*
D03*
X9506D02*
D03*
X10884D02*
D03*
X12262D02*
D03*
X13640D02*
D03*
X15018D02*
D03*
X1750Y28224D02*
D03*
Y29224D02*
D03*
Y31224D02*
D03*
Y33224D02*
D03*
Y32224D02*
D03*
Y30224D02*
D03*
X25110Y1900D02*
D03*
X26488D02*
D03*
X27866D02*
D03*
X29244D02*
D03*
X30622D02*
D03*
X32000D02*
D03*
X33378D02*
D03*
X34756D02*
D03*
D111*
X17652Y20406D02*
D03*
Y19406D02*
D03*
Y18406D02*
D03*
Y17406D02*
D03*
Y16406D02*
D03*
Y15406D02*
D03*
Y14406D02*
D03*
Y13406D02*
D03*
Y12406D02*
D03*
X11652D02*
D03*
Y13406D02*
D03*
Y14406D02*
D03*
Y15406D02*
D03*
Y16406D02*
D03*
Y17406D02*
D03*
Y18406D02*
D03*
Y19406D02*
D03*
Y20406D02*
D03*
X17652Y34406D02*
D03*
Y33406D02*
D03*
Y32406D02*
D03*
Y31406D02*
D03*
Y30406D02*
D03*
Y29406D02*
D03*
Y28406D02*
D03*
Y27406D02*
D03*
Y26406D02*
D03*
Y25406D02*
D03*
Y24406D02*
D03*
Y23406D02*
D03*
Y22406D02*
D03*
X11652Y21406D02*
D03*
Y22406D02*
D03*
Y23406D02*
D03*
Y24406D02*
D03*
Y25406D02*
D03*
Y26406D02*
D03*
Y27406D02*
D03*
Y28406D02*
D03*
Y29406D02*
D03*
Y30406D02*
D03*
Y31406D02*
D03*
Y32406D02*
D03*
Y33406D02*
D03*
X17652Y21406D02*
D03*
X15652Y17406D02*
D03*
X16652Y34406D02*
D03*
Y17406D02*
D03*
X14652D02*
D03*
X13652D02*
D03*
X12652D02*
D03*
X11652Y34406D02*
D03*
Y35406D02*
D03*
D112*
X17652D02*
D03*
D113*
X12853Y28906D02*
D03*
Y29906D02*
D03*
Y30906D02*
D03*
Y31906D02*
D03*
Y32906D02*
D03*
D114*
X15113Y30300D02*
D03*
X15900D02*
D03*
X15113Y29513D02*
D03*
X15900D02*
D03*
X16687Y30300D02*
D03*
Y29513D02*
D03*
D116*
X4822Y47400D02*
D03*
X6200D02*
D03*
D118*
X36280Y38560D02*
D03*
X37280D02*
D03*
X36280Y37560D02*
D03*
X37280D02*
D03*
X36280Y36560D02*
D03*
X37280D02*
D03*
X36280Y35560D02*
D03*
X37280D02*
D03*
X36280Y34560D02*
D03*
X37280D02*
D03*
X36280Y33560D02*
D03*
X37280D02*
D03*
X36280Y32560D02*
D03*
X37280D02*
D03*
X36280Y31560D02*
D03*
X37280D02*
D03*
X36280Y30560D02*
D03*
X37280D02*
D03*
X36280Y29560D02*
D03*
X37280D02*
D03*
X36280Y28560D02*
D03*
X37280D02*
D03*
X36280Y27560D02*
D03*
X37280D02*
D03*
X36280Y26560D02*
D03*
X37280D02*
D03*
D120*
X24600Y46800D02*
D03*
X26600D02*
D03*
X34220D02*
D03*
X32220D02*
D03*
D121*
X38250Y13250D02*
D03*
Y14250D02*
D03*
X7573Y31958D02*
D03*
D122*
X3900Y6826D02*
D03*
X15770Y32410D02*
D03*
X34750Y19728D02*
D03*
Y18950D02*
D03*
X20964Y18223D02*
D03*
X26530Y28190D02*
D03*
X27938Y9066D02*
D03*
X13150Y23700D02*
D03*
X14750Y41050D02*
D03*
X32384Y26045D02*
D03*
X31632Y25955D02*
D03*
X35280Y26660D02*
D03*
X31622Y32543D02*
D03*
X31597Y37690D02*
D03*
X19157Y32999D02*
D03*
X31347Y35701D02*
D03*
X28272Y30805D02*
D03*
X31347Y29586D02*
D03*
X34695Y24460D02*
D03*
X31555Y27710D02*
D03*
X29580Y33395D02*
D03*
X34210Y28270D02*
D03*
X31222Y26659D02*
D03*
X31097Y32836D02*
D03*
X22610Y29420D02*
D03*
X32722Y10160D02*
D03*
X27754Y29880D02*
D03*
X29094Y32780D02*
D03*
X32422Y35430D02*
D03*
Y37612D02*
D03*
X33550Y7404D02*
D03*
X29209D02*
D03*
D123*
X32200Y11750D02*
D03*
X22714Y18823D02*
D03*
X25215Y26558D02*
D03*
X18660Y46435D02*
D03*
X15960Y45432D02*
D03*
X14829Y27100D02*
D03*
X7340Y9160D02*
D03*
X7890Y8710D02*
D03*
X32300Y12600D02*
D03*
X5100Y8401D02*
D03*
X14270Y25550D02*
D03*
X6990Y6910D02*
D03*
X3530Y7726D02*
D03*
X14120Y32510D02*
D03*
X30685Y26659D02*
D03*
X30550Y26225D02*
D03*
X29546Y26450D02*
D03*
X37933Y31561D02*
D03*
X31209Y12653D02*
D03*
X37983Y23161D02*
D03*
X36650Y19328D02*
D03*
X36700Y20578D02*
D03*
X38033Y29261D02*
D03*
X37000Y19878D02*
D03*
X26229Y9708D02*
D03*
X23320Y7608D02*
D03*
X23000Y6595D02*
D03*
X20700Y7045D02*
D03*
X16543Y41510D02*
D03*
X13770Y22200D02*
D03*
X12820Y18800D02*
D03*
X29741Y45770D02*
D03*
X24500Y30800D02*
D03*
X25796Y24940D02*
D03*
X25450Y33350D02*
D03*
X25414Y30480D02*
D03*
X9419Y30250D02*
D03*
X9000Y28604D02*
D03*
X32850Y24652D02*
D03*
X27809Y36860D02*
D03*
X30277Y34100D02*
D03*
X30703Y32961D02*
D03*
X30277Y36400D02*
D03*
X30578Y35701D02*
D03*
X30900Y39000D02*
D03*
X30100Y38600D02*
D03*
X21200Y47659D02*
D03*
X35360Y34100D02*
D03*
Y32600D02*
D03*
X34150Y37600D02*
D03*
X35360Y36107D02*
D03*
X35350Y37300D02*
D03*
X19850Y28535D02*
D03*
X30884Y28585D02*
D03*
X18322Y47803D02*
D03*
X31632Y25385D02*
D03*
X32420Y26630D02*
D03*
X32169Y28471D02*
D03*
X32045Y29855D02*
D03*
X2750Y44440D02*
D03*
X14360Y43182D02*
D03*
X32489Y42200D02*
D03*
X30350Y44630D02*
D03*
X32994Y45445D02*
D03*
X10570Y30090D02*
D03*
X33690Y31020D02*
D03*
X29324Y35320D02*
D03*
X30703Y29961D02*
D03*
X31660Y33010D02*
D03*
X33740D02*
D03*
X28812Y34540D02*
D03*
X31870Y26620D02*
D03*
X27990Y27660D02*
D03*
X31340Y27490D02*
D03*
X28395Y28860D02*
D03*
X30775Y31159D02*
D03*
X33970Y26240D02*
D03*
X27895Y28310D02*
D03*
X28300Y33520D02*
D03*
X29034Y28860D02*
D03*
X28080Y31670D02*
D03*
X29290Y30130D02*
D03*
X27788Y33310D02*
D03*
X29546Y28640D02*
D03*
X23290Y32280D02*
D03*
X28693Y35265D02*
D03*
X31309Y42309D02*
D03*
X30580Y37700D02*
D03*
X27670Y28860D02*
D03*
X29790Y34540D02*
D03*
X35570Y35380D02*
D03*
X32600Y30020D02*
D03*
X28010Y25700D02*
D03*
X33000Y30050D02*
D03*
X30900Y35635D02*
D03*
Y34820D02*
D03*
X33410Y33560D02*
D03*
X28272Y31113D02*
D03*
X28778Y29880D02*
D03*
X29094Y32275D02*
D03*
X30860Y27860D02*
D03*
X33690Y27060D02*
D03*
X28778Y28210D02*
D03*
X33510Y29050D02*
D03*
X30900Y34160D02*
D03*
X34140Y30560D02*
D03*
X32850Y31935D02*
D03*
X32297Y37130D02*
D03*
X30263Y44315D02*
D03*
X19390Y47340D02*
D03*
X28743Y25476D02*
D03*
X21850Y29420D02*
D03*
X25770Y28190D02*
D03*
X32002Y29390D02*
D03*
X31622Y31970D02*
D03*
X13651Y40901D02*
D03*
X32850Y33560D02*
D03*
X12716Y42737D02*
D03*
X32422Y34980D02*
D03*
X13950Y42193D02*
D03*
X24000Y39280D02*
D03*
X26050Y39220D02*
D03*
X14560Y47701D02*
D03*
X14400Y47341D02*
D03*
X14125Y48987D02*
D03*
X19478Y47780D02*
D03*
X29215Y44387D02*
D03*
X32330Y42890D02*
D03*
X31560Y44400D02*
D03*
X31304Y7880D02*
D03*
Y8396D02*
D03*
Y8930D02*
D03*
X30450Y9250D02*
D03*
X32625Y9385D02*
D03*
X33974Y6796D02*
D03*
X33203Y6376D02*
D03*
X30559Y12203D02*
D03*
X27559Y6587D02*
D03*
X27700Y7540D02*
D03*
X29175Y8650D02*
D03*
X29004Y10216D02*
D03*
X29269Y6550D02*
D03*
X32500Y6450D02*
D03*
X28182Y6389D02*
D03*
X34923Y7408D02*
D03*
X30600Y7350D02*
D03*
X29950Y4050D02*
D03*
X35404Y4000D02*
D03*
X34100D02*
D03*
X32709D02*
D03*
X31370D02*
D03*
X28591D02*
D03*
X27209D02*
D03*
X25841D02*
D03*
D124*
X8579Y44395D02*
D03*
D125*
X1700Y1700D02*
D03*
X38070D02*
D03*
Y48300D02*
D03*
X1700D02*
D03*
D126*
X7573Y34950D02*
D03*
D127*
X31085Y43615D02*
D03*
X8090Y46045D02*
D03*
M02*
