G04*
G04 #@! TF.GenerationSoftware,Altium Limited,Altium Designer,22.10.1 (41)*
G04*
G04 Layer_Color=12632256*
%FSLAX24Y24*%
%MOIN*%
G70*
G04*
G04 #@! TF.SameCoordinates,F5F2B8B7-F30C-4C2E-8927-2DA7AF6E4F83*
G04*
G04*
G04 #@! TF.FilePolarity,Positive*
G04*
G01*
G75*
%ADD88R,0.0539X0.0539*%
%ADD89C,0.0539*%
%ADD90C,0.0650*%
%ADD91R,0.0650X0.0650*%
%ADD92C,0.0515*%
%ADD93C,0.0495*%
%ADD94C,0.0476*%
%ADD95R,0.0515X0.0515*%
%ADD96C,0.2850*%
%ADD97C,0.0984*%
%ADD98R,0.0600X0.0600*%
%ADD99C,0.0600*%
%ADD100C,0.1000*%
%ADD101R,0.1000X0.1000*%
%ADD103C,0.0630*%
%ADD104R,0.0630X0.0630*%
D88*
X21500Y2750D02*
D03*
D89*
X20500D02*
D03*
D90*
X5372Y1900D02*
D03*
X6750D02*
D03*
X8128D02*
D03*
X9506D02*
D03*
X10884D02*
D03*
X12262D02*
D03*
X13640D02*
D03*
X25110D02*
D03*
X26488D02*
D03*
X27866D02*
D03*
X29244D02*
D03*
X30622D02*
D03*
X32000D02*
D03*
X33378D02*
D03*
D91*
X15018D02*
D03*
X34756D02*
D03*
D92*
X17652Y20406D02*
D03*
Y19406D02*
D03*
Y18406D02*
D03*
Y17406D02*
D03*
Y16406D02*
D03*
Y15406D02*
D03*
Y14406D02*
D03*
Y13406D02*
D03*
Y12406D02*
D03*
X11652D02*
D03*
Y13406D02*
D03*
Y14406D02*
D03*
Y15406D02*
D03*
Y16406D02*
D03*
Y17406D02*
D03*
Y18406D02*
D03*
Y19406D02*
D03*
Y20406D02*
D03*
X17652Y35406D02*
D03*
Y34406D02*
D03*
Y33406D02*
D03*
Y32406D02*
D03*
Y31406D02*
D03*
Y30406D02*
D03*
Y29406D02*
D03*
Y28406D02*
D03*
Y27406D02*
D03*
Y26406D02*
D03*
Y25406D02*
D03*
Y24406D02*
D03*
Y23406D02*
D03*
Y22406D02*
D03*
X11652Y21406D02*
D03*
Y22406D02*
D03*
Y23406D02*
D03*
Y24406D02*
D03*
Y25406D02*
D03*
Y26406D02*
D03*
Y27406D02*
D03*
Y28406D02*
D03*
Y29406D02*
D03*
Y30406D02*
D03*
Y31406D02*
D03*
Y32406D02*
D03*
Y33406D02*
D03*
X17652Y21406D02*
D03*
X15652Y17406D02*
D03*
X16652Y34406D02*
D03*
Y17406D02*
D03*
X14652D02*
D03*
X13652D02*
D03*
X12652D02*
D03*
X11652Y34406D02*
D03*
D93*
X12853Y28906D02*
D03*
Y29906D02*
D03*
Y30906D02*
D03*
Y31906D02*
D03*
Y32906D02*
D03*
D94*
X15113Y30300D02*
D03*
X15900D02*
D03*
X15113Y29513D02*
D03*
X15900D02*
D03*
X16687Y30300D02*
D03*
Y29513D02*
D03*
D95*
X11652Y35406D02*
D03*
D96*
X1700Y1700D02*
D03*
X38070D02*
D03*
Y48300D02*
D03*
X1700D02*
D03*
D97*
X4822Y47400D02*
D03*
X6200D02*
D03*
D98*
X36280Y38560D02*
D03*
X38250Y14250D02*
D03*
D99*
X37280Y38560D02*
D03*
X36280Y37560D02*
D03*
X37280D02*
D03*
X36280Y36560D02*
D03*
X37280D02*
D03*
X36280Y35560D02*
D03*
X37280D02*
D03*
X36280Y34560D02*
D03*
X37280D02*
D03*
X36280Y33560D02*
D03*
X37280D02*
D03*
X36280Y32560D02*
D03*
X37280D02*
D03*
X36280Y31560D02*
D03*
X37280D02*
D03*
X36280Y30560D02*
D03*
X37280D02*
D03*
X36280Y29560D02*
D03*
X37280D02*
D03*
X36280Y28560D02*
D03*
X37280D02*
D03*
X36280Y27560D02*
D03*
X37280D02*
D03*
X36280Y26560D02*
D03*
X37280D02*
D03*
X38250Y13250D02*
D03*
X7573Y34950D02*
D03*
Y31958D02*
D03*
D100*
X24600Y46800D02*
D03*
X32220D02*
D03*
D101*
X26600D02*
D03*
X34220D02*
D03*
D103*
X1750Y28224D02*
D03*
Y29224D02*
D03*
Y31224D02*
D03*
Y32224D02*
D03*
Y30224D02*
D03*
D104*
Y33224D02*
D03*
M02*
