M48
;Layer_Color=9474304
;FILE_FORMAT=2:5
INCH,LZ
;TYPE=PLATED
T1F00S00C0.01200
T2F00S00C0.02756
T3F00S00C0.02800
T4F00S00C0.02953
T5F00S00C0.03150
T6F00S00C0.03504
T7F00S00C0.04000
T8F00S00C0.04016
T9F00S00C0.04331
T10F00S00C0.05500
T11F00S00C0.06299
T12F00S00C0.15200
%
T01
X0039Y0068261
X00353Y0077261
X0051Y0084009
X00734Y00916
X00789Y00871
X00699Y00691
X0207Y0070448
X023Y006595
X0233197Y0076081
X0277Y00754
X0275587Y0065869
X0281819Y006389
X0292693Y00655
X0292094Y0074036
X0291748Y00865
X0279376Y0090657
X03045Y00925
X0313038Y0089295
Y0083964
Y0078795
X0306Y00735
X0325Y00645
X0332025Y0063756
X0339742Y0067956
X03355Y0074036
X0349229Y0074079
X0354041Y004
X0341
X0327091
X0313697
X02995Y00405
X028591Y004
X0272091
X025841
X0379828Y023161
X0367Y0205782
X037Y0198782
X03665Y0193281
X03475Y01895
Y0197282
X034695Y02446
X03285Y0246519
X0257957Y02494
X022714Y0188231
X0262291Y0097081
X0290038Y0102157
X0305587Y0122028
X0312087Y0126528
X0323Y0126
X0322Y01175
X0327219Y01016
X0326248Y009385
X020964Y0182231
X01282Y0188
X01377Y0222
X01315Y0237
X01427Y02555
X0148291Y0271
X01412Y03251
X01577Y03241
X0191572Y0329994
X01985Y028535
X02185Y02942
X01057Y03009
X0094193Y0302503
X009Y0286042
X02261Y02942
X0245Y0308
X0254141Y03048
X02577Y02819
X02653
X027895Y02831
X02799Y02766
X0287779Y02821
X0290339Y02886
X028395
X02767
X0277543Y02988
X0287779
X0292898Y03013
X0307031Y0299607
X0313468Y0295857
X0320019Y02939
X032045Y0298547
X0326Y03002
X033Y03005
X03351Y0290498
X03421Y02827
X03369Y02706
X03397Y02624
X03528Y02666
X03242Y02663
X03187Y02662
X0312218Y0266586
X030685
X03055Y026225
X0295457Y02645
X0287428Y0254756
X02801Y0257
X025215Y0265582
X0295457Y02864
X0308839Y028585
X03086Y02786
X031555Y02771
X03134Y02749
X0321693Y0284707
X0323837Y0260454
X0316319Y025955
Y025385
X0316219Y03197
Y032543
X03166Y03301
X0310968Y0328357
X0307031Y0329607
X0309Y03416
Y03482
Y035635
X0305781Y0357007
X0313468
X0324219Y03543
Y03498
X03285Y03356
X03341
X03374Y03301
X03285Y031935
X03369Y03102
X03414Y03056
X03536Y0326
Y0341
X03557Y03538
X03536Y036107
X03535Y0373
X03415Y0376
X0324219Y0376119
X0322969Y03713
X0315968Y0376901
X03058Y0377
X0301Y0386
X0309Y039
X0302771Y0364
X0293236Y03532
X0286927Y035265
X0288118Y03454
X02979
X0302771Y0341
X0295795Y033395
X0290938Y03278
Y032275
X02808Y03167
X0282719Y031113
Y030805
X0283Y03352
X0277882Y03331
X02545Y03335
X02329Y03228
X024Y03928
X02605Y03922
X0278092Y03686
X030775Y0311593
X0379328Y031561
X0380328Y029261
X0324891Y0422
X03233Y04289
X0313095Y0423091
X03156Y0444
X0302631Y044315
X03035Y04463
X029215Y0443875
X0297409Y04577
X0329945Y0454455
X0212Y047659
X0194781Y04778
X01939Y04734
X0183219Y047803
X01866Y0464354
X01596Y0454319
X0144Y0473409
X01456Y0477013
X0141248Y0489875
X01436Y0431819
X01395Y0421928
X0136512Y0409015
X01475Y04105
X0165431Y04151
X0127157Y0427375
X00275Y04444
T02
X0151126Y0295126
X0159
Y0303
X0151126
X0166874
Y0295126
T03
X031085Y043615
X0085792Y044395
X0080897Y046045
T04
X0128528Y0289063
Y0299063
Y0309063
Y0319063
Y0329063
T05
X011652Y0124063
Y0134063
Y0144063
Y0154063
Y0164063
Y0174063
Y0184063
Y0194063
Y0204063
Y0214063
Y0224063
Y0234063
Y0244063
X017652
Y0234063
Y0224063
Y0214063
Y0204063
Y0194063
Y0184063
Y0174063
Y0164063
Y0154063
Y0144063
Y0134063
Y0124063
X016652Y0174063
X015652
X014652
X013652
X012652
X011652Y0254063
Y0264063
Y0274063
Y0284063
Y0294063
Y0304063
Y0314063
Y0324063
Y0334063
Y0344063
Y0354063
X017652
Y0344063
Y0334063
Y0324063
Y0314063
Y0304063
Y0294063
Y0284063
Y0274063
Y0264063
Y0254063
X016652Y0344063
T06
X03628Y02656
Y02756
Y02856
Y02956
Y03056
Y03156
Y03256
Y03356
Y03456
Y03556
Y03656
Y03756
Y03856
X03728
Y03756
Y03656
Y03556
Y03456
Y03356
Y03256
Y03156
Y03056
Y02956
Y02856
Y02756
Y02656
T07
X03825Y01325
Y01425
X0075727Y0319579
Y03495
T08
X0205Y00275
X0215
T09
X005372Y0019
X00675
X0081279
X0095059
X0108839
X0122618
X0136398
X0150177
X0251102
X0264882
X0278661
X0292441
X030622
X032
X033378
X0347559
X00175Y0282242
Y0292242
Y0302242
Y0312242
Y0322242
Y0332242
T10
X0246Y0468
X0266
X03222
X03422
T11
X0048221Y0474
X0062
T12
X0017Y0017
X03807
Y0483
X0017
M30
